<?xml version="1.0" encoding="UTF-8" standalone="no"?>
<!-- Created with Inkscape (http://www.inkscape.org/) -->

<svg
   width="511.99997"
   height="512"
   viewBox="0 0 511.99997 512"
   version="1.1"
   id="svg1"
   xml:space="preserve"
   inkscape:export-filename="banner.svg"
   inkscape:export-xdpi="96"
   inkscape:export-ydpi="96"
   sodipodi:docname="banner.svg"
   inkscape:version="1.3.2 (091e20ef0f, 2023-11-25)"
   xmlns:inkscape="http://www.inkscape.org/namespaces/inkscape"
   xmlns:sodipodi="http://sodipodi.sourceforge.net/DTD/sodipodi-0.dtd"
   xmlns="http://www.w3.org/2000/svg"
   xmlns:svg="http://www.w3.org/2000/svg"><sodipodi:namedview
     id="namedview1"
     pagecolor="#505050"
     bordercolor="#eeeeee"
     borderopacity="1"
     inkscape:showpageshadow="0"
     inkscape:pageopacity="0"
     inkscape:pagecheckerboard="0"
     inkscape:deskcolor="#505050"
     inkscape:document-units="px"
     inkscape:zoom="0.3236192"
     inkscape:cx="630.3705"
     inkscape:cy="475.86793"
     inkscape:window-width="1920"
     inkscape:window-height="1008"
     inkscape:window-x="0"
     inkscape:window-y="0"
     inkscape:window-maximized="1"
     inkscape:current-layer="layer1" /><defs
     id="defs1" /><g
     inkscape:label="Layer 1"
     inkscape:groupmode="layer"
     id="layer1"
     transform="translate(-369.91238,566.15509)"><rect
       style="fill:none;fill-opacity:1;stroke:none;stroke-width:0.772"
       id="rect2"
       width="512"
       height="512"
       x="369.91238"
       y="-566.15509"
       inkscape:export-filename="./rect2.png"
       inkscape:export-xdpi="96"
       inkscape:export-ydpi="96" /><g
       id="g3"
       style="opacity:0.628957;fill:none;fill-opacity:1;stroke:#e39393;stroke-width:2.38793;stroke-dasharray:none;stroke-opacity:1"
       transform="matrix(-1.8033706e-8,1.2445309,-1.2445309,-1.8033706e-8,944.51218,-628.75496)"><ellipse
         style="fill:none;fill-opacity:1;stroke:#e39393;stroke-width:2.38793;stroke-dasharray:none;stroke-opacity:1"
         id="ellipse2"
         transform="rotate(45)"
         cy="2.8421709e-14"
         cx="362.03867"
         ry="142.15617"
         rx="87.857353" /><ellipse
         style="fill:none;fill-opacity:1;stroke:#e39393;stroke-width:2.38793;stroke-dasharray:none;stroke-opacity:1"
         id="ellipse3"
         cx="2.8421709e-14"
         cy="362.03867"
         rx="87.857353"
         ry="142.15617"
         transform="rotate(-45)" /></g><path
       id="path3"
       style="fill:#f1eee9;fill-opacity:1;stroke-width:30.0829;stroke-dasharray:none"
       d="m 628.17005,-499.29183 c 2.35949,0.0849 3.35804,93.97645 49.24907,141.02431 45.89101,47.04794 136.67454,47.25216 136.73098,50.48332 0.0565,3.23121 -90.61419,9.4894 -137.66204,55.38038 -47.04793,45.89101 -50.47315,131.41497 -52.83332,131.38552 -2.36023,-0.0293 -3.65549,-85.61194 -49.54646,-132.65992 -45.89105,-47.04786 -136.37781,-55.56105 -136.43362,-58.84763 -0.0557,-3.28671 90.31964,-1.34681 137.36745,-47.23775 47.04791,-45.89106 50.76842,-139.61299 53.12794,-139.52823 z" /><path
       d="m 577.63678,-259.01426 c 1.92713,-0.51637 3.07247,-2.29862 2.59298,-4.08809 -4.93326,-26.11968 -22.2404,-105.57727 -23.19938,-109.15622 -0.4426,-1.65183 -1.8119,-2.90782 -4.05121,-2.45533 l -26.87182,5.42987 -0.27531,0.0738 c -1.65182,0.44261 -2.76027,2.36251 -2.31767,4.01433 l 13.43364,56.74233 c 0.29507,1.10123 0.24108,2.0009 -0.30953,2.14843 -0.41296,0.11065 -0.89968,-0.054 -1.53395,-0.76926 -18.80382,-18.41961 -43.25932,-41.96395 -53.73148,-48.01005 -0.87268,-0.50384 -3.92079,-0.86739 -5.98558,-0.31413 l -0.2753,0.0738 -26.51022,8.43121 c -2.71616,0.87532 -2.79451,4.43717 -2.38879,5.95133 l 0.0738,0.27531 34.2089,103.9932 c 0.61715,1.7526 2.85911,3.51242 4.9239,2.95916 l 0.41295,-0.11065 24.85575,-10.20092 c 3.33065,-1.33504 3.9695,-4.45692 3.56377,-5.9711 l -0.0369,-0.13765 -22.73275,-56.75874 -0.14754,-0.55062 c -0.29507,-1.10121 -0.16731,-1.72558 0.52096,-1.91 0.41296,-0.11066 1.03733,0.0171 1.80924,0.69549 7.91077,5.84721 49.16196,49.67706 53.26982,53.44502 1.15787,1.01756 2.76558,2.06213 4.27975,1.65641 z"
       id="path4"
       style="font-size:142.508px;font-family:'FOT-Yuruka Std';-inkscape-font-specification:'FOT-Yuruka Std';fill:#72555f;stroke:#f1eee9;stroke-width:5.49251"
       aria-label="N" /><path
       d="m 642.22491,-264.37288 c 1.99511,0 3.7052,-1.42508 3.84771,-3.27768 l 1.99511,-37.90713 c 22.08874,-21.80372 43.17993,-62.4185 43.17993,-66.55123 0,-1.42508 -0.71254,-2.42264 -2.56515,-3.13518 l -23.51382,-8.8355 c -0.85505,-0.28501 -1.42508,-0.42752 -2.13762,-0.42752 -1.42508,0 -2.42263,0.71254 -3.27768,1.99511 -3.5627,5.84283 -25.22392,39.04719 -27.36154,39.04719 -0.42752,0 -0.85504,-0.42752 -1.42508,-1.14006 l -26.22147,-38.33465 c -0.57003,-0.85505 -2.13762,-2.13762 -4.27524,-2.13762 -0.42752,0 -0.99755,0.14251 -1.56759,0.28501 l -26.36397,7.69544 c -1.42508,0.42752 -2.13762,1.71009 -2.13762,2.99266 0,0.57004 0.1425,1.14007 0.42752,1.56759 l 38.76217,63.27355 -2.13762,39.61722 v 0.28502 c 0,1.8526 1.56759,3.27768 3.4202,3.42019 z"
       id="path5"
       style="font-size:142.508px;font-family:'FOT-Yuruka Std';-inkscape-font-specification:'FOT-Yuruka Std';fill:#b37c7c;stroke:#f1eee9;stroke-width:5.49251"
       aria-label="Y" /><path
       d="m 763.58425,-232.78174 c 1.22019,-0.1183 2.08921,-0.76845 2.65924,-1.75577 0.35627,-0.61708 0.51787,-1.182 0.30923,-1.96068 l -11.30234,-49.96768 c 25.62138,-9.89059 42.43559,-18.77751 44.64446,-22.6034 0.7838,-1.35757 0.87926,-2.948 0.19604,-4.32978 l -11.18203,-25.37966 c -0.2799,-0.65526 -0.87788,-1.32962 -1.49496,-1.68589 -0.86391,-0.49878 -1.94158,-0.6273 -3.05743,-0.11967 -7.9535,3.8003 -22.56395,10.01027 -37.81057,16.18205 l -9.18792,-40.51922 c -0.18956,-1.09676 -0.89186,-2.16045 -1.87919,-2.73049 -0.61708,-0.35627 -1.37667,-0.4657 -2.08409,-0.38048 l -29.02348,3.81255 c -1.09676,0.18955 -2.0892,0.76845 -2.58798,1.63235 -0.42752,0.7405 -0.53697,1.50008 -0.32831,2.27876 l 11.25017,49.77301 c -17.19844,7.84232 -37.82454,15.35121 -49.38642,19.70108 -0.65526,0.2799 -1.25836,0.75447 -1.61463,1.37155 -0.49878,0.86391 -0.6273,1.94158 -0.11967,3.05743 l 10.43267,22.97238 c 0.27991,0.65527 0.82573,1.13495 1.31939,1.41997 0.86391,0.49877 2.065,0.69856 3.23302,0.3856 9.18254,-1.93885 29.03882,-7.25933 44.26635,-13.11302 l 9.81387,42.85525 c 0.18955,1.09676 0.96311,2.03705 1.82702,2.53583 0.61708,0.35627 1.30541,0.58912 2.08408,0.38047 z"
       id="path6"
       style="font-size:142.508px;font-family:'FOT-Yuruka Std';-inkscape-font-specification:'FOT-Yuruka Std';fill:#d2969c;stroke:#f1eee9;stroke-width:5.49251"
       aria-label="X" /><g
       id="g9"
       transform="matrix(0.56493591,-0.12467738,0.12467738,0.56493591,6.15378,-332.91362)"><path
         d="m 741.98964,547.63546 c 0.56565,-0.0566 1.07474,-0.50909 1.07474,-1.07474 v -0.11313 l -0.62222,-10.1817 c -0.0566,-0.56565 -0.84847,-1.07473 -1.41412,-1.07473 h -0.11313 l -37.72886,1.81008 c -0.62221,0.0566 -0.79191,0.56565 -0.79191,1.24443 l 0.67878,10.12513 c 0.0566,0.62222 0.56565,1.1313 1.18787,1.1313 z m -6.27871,-23.98356 c 0.62221,0 1.18786,-0.50908 1.18786,-1.1313 l 0.11313,-10.12513 v -0.11313 c 0,-0.62222 -0.50908,-1.07474 -1.07473,-1.07474 l -27.94311,-0.62221 c -0.67878,0 -1.18787,0.45252 -1.18787,1.1313 l -0.16969,10.12513 c 0,0.62222 0.50908,1.18787 1.1313,1.18787 z"
         id="path7"
         style="font-size:56.565px;font-family:'FOT-Yuruka Std';-inkscape-font-specification:'FOT-Yuruka Std';fill:#cf9fc6;stroke:#f1eee9;stroke-width:0.810929"
         transform="rotate(-10.881973)"
         aria-label="ニ" /><path
         d="m 844.387,399.98581 c 0.39596,0.39595 0.73535,0.56565 1.1313,0.56565 2.71512,0 29.35724,-15.89477 32.46831,-34.1087 0.0566,-0.33939 0.11313,-0.67878 0.11313,-1.01817 0,-3.3939 -2.99794,-5.43024 -5.31711,-5.59993 l -17.64828,-1.35756 c -2.14947,-3.50703 -2.54542,-4.12925 -3.28077,-4.12925 -0.39595,0 -0.73534,0.1697 -1.01817,0.39596 -3.84642,2.77168 -9.89887,6.67467 -15.78163,8.65444 -0.50909,0.1697 -0.84848,0.50909 -0.84848,1.01817 0,0.22626 0.11313,0.56565 0.33939,0.90504 l 4.86459,7.74941 c 0.39596,0.56565 0.84848,0.73534 1.41413,0.73534 1.24443,0 5.6565,-1.35756 12.78369,-4.46863 l 6.39184,0.50908 c 0.67878,0.0566 1.07474,0.33939 1.07474,0.79191 0,1.47069 -11.08674,14.76347 -21.89066,21.55127 -0.62221,0.45252 -0.90504,0.84847 -0.90504,1.24443 0,0.28282 0.11313,0.50908 0.39596,0.79191 z"
         id="path8"
         style="font-size:56.565px;font-family:'FOT-Yuruka Std';-inkscape-font-specification:'FOT-Yuruka Std';fill:#cf9fc6;stroke:#f1eee9;stroke-width:0.810929"
         aria-label="ク" /><path
         d="m 944.53356,198.29453 c 0.50908,0.62221 1.01817,0.84847 1.52725,0.84847 0.50909,0 0.96161,-0.16969 1.47069,-0.33939 15.10286,-5.20398 27.99968,-21.94722 29.30067,-35.97534 0,-0.22626 0.0566,-0.39595 0.0566,-0.62221 0,-3.78986 -3.50703,-6.05246 -6.05246,-6.27872 l -22.56943,-1.75351 h -0.11313 c -0.62222,0 -1.1313,0.45252 -1.18787,1.07473 l -0.84847,9.33323 v 0.11313 c 0,0.62221 0.45252,1.1313 1.07473,1.18786 l 11.99178,1.01817 c 0.84848,0.0566 1.24443,0.39596 1.24443,1.07474 0,2.82825 -8.48475,16.68667 -20.02401,22.39974 -0.79191,0.33939 -1.1313,0.73534 -1.1313,1.18786 0,0.28283 0.1697,0.56565 0.39596,0.84848 z m 22.85226,-9.27666 c -0.22626,0.28282 -0.33939,0.56565 -0.33939,0.79191 0,0.45252 0.39595,0.73534 0.84847,1.01817 2.82825,1.69695 9.33323,5.71306 12.38774,7.69284 0.28282,0.16969 0.67878,0.33939 1.01817,0.33939 0.39595,0 0.73534,-0.1697 1.01817,-0.62222 1.47069,-2.43229 4.5252,-7.24032 5.88276,-9.55948 0.22626,-0.39596 0.39595,-0.73535 0.39595,-1.07474 0,-0.45252 -0.28282,-0.84847 -0.84847,-1.18786 -6.9575,-4.07268 -13.85843,-4.92116 -14.31095,-4.92116 -0.50908,0 -1.01817,0.1697 -1.41412,0.73535 z"
         id="path9"
         style="font-size:56.565px;font-family:'FOT-Yuruka Std';-inkscape-font-specification:'FOT-Yuruka Std';fill:#cf9fc6;stroke:#f1eee9;stroke-width:0.810929"
         transform="rotate(12.748465)"
         aria-label="ス" /></g></g></svg>
